<svg xmlns="http://www.w3.org/2000/svg" xmlns:xlink="http://www.w3.org/1999/xlink" width="600" zoomAndPan="magnify" viewBox="0 0 450 89.999999" height="120" preserveAspectRatio="xMidYMid meet" version="1.0"><defs><g/></defs><g fill="#000000" fill-opacity="0.502"><g transform="translate(9.550783, 64.554182)"><g><path d="M 32.261719 -0.664062 C 32.820312 -0.90625 33.40625 -14.148438 33.40625 -14.148438 L 32.980469 -14.601562 L 10.480469 -15.800781 L 10.851562 -19.523438 C 10.851562 -19.523438 28.910156 -19.390625 29.523438 -19.523438 C 30.109375 -19.628906 29.417969 -39.65625 28.910156 -39.765625 C 27.554688 -40.03125 5.585938 -38.59375 5.105469 -38.222656 C 5.054688 -38.195312 4.363281 -37.238281 4.363281 -37.238281 C 3.113281 -35.589844 2.765625 -13.433594 3.058594 -13.433594 C 3.058594 -13.433594 6.96875 -12.261719 17.15625 -11.757812 C 16.941406 -10.105469 16.570312 -7.847656 16.570312 -7.847656 C 15.957031 -7.847656 4.761719 -9.390625 4.761719 -9.390625 C 4.679688 -9.335938 4.148438 -8.40625 4.148438 -8.40625 C 4.148438 -8.40625 4.175781 -2.019531 4.601562 -1.195312 Z M 32.261719 -0.664062 "/></g></g></g><g fill="#000000" fill-opacity="0.502"><g transform="translate(44.684189, 64.554182)"><g><path d="M 4.28125 0.265625 L 10.53125 0.292969 C 10.53125 0.292969 11.597656 -38.671875 11.25 -38.753906 C 6.996094 -39.738281 4.523438 -39.496094 4.523438 -39.496094 L 3.191406 -39.097656 C 3.191406 -39.097656 2.5 -12.394531 3.378906 -0.957031 Z M 4.28125 0.265625 "/></g></g></g><g fill="#000000" fill-opacity="0.502"><g transform="translate(58.301375, 64.554182)"><g><path d="M 4.546875 0.265625 L 10.796875 0.292969 C 10.796875 0.292969 11.863281 -30.695312 11.515625 -30.773438 C 7.261719 -31.757812 4.789062 -31.519531 4.789062 -31.519531 L 3.457031 -31.121094 C 3.457031 -31.121094 2.765625 -12.394531 3.644531 -0.957031 Z M 11.492188 -39.207031 C 11.492188 -39.445312 11.492188 -39.65625 11.355469 -39.871094 C 10.691406 -41.386719 9.496094 -41.679688 7.847656 -41.679688 C 5.90625 -41.679688 2.660156 -40.828125 2.660156 -38.566406 C 2.660156 -36.519531 4.921875 -35.269531 6.730469 -35.269531 C 8.722656 -35.269531 11.492188 -37.210938 11.492188 -39.207031 Z M 11.492188 -39.207031 "/></g></g></g><g fill="#000000" fill-opacity="0.502"><g transform="translate(72.583464, 64.554182)"><g><path d="M 21.359375 -7.207031 C 21.359375 -7.207031 26.304688 -29.894531 26.226562 -29.949219 C 25.003906 -30.773438 22.128906 -31.570312 22.128906 -31.570312 L 20.984375 -31.332031 L 17.207031 -19.816406 C 17.207031 -19.816406 13.273438 -31.730469 13.164062 -31.703125 C 9.574219 -31.039062 1.675781 -27.609375 1.675781 -27.609375 L 1.355469 -26.757812 L 9.894531 0.398438 L 19.203125 0.0546875 Z M 21.359375 -7.207031 "/></g></g></g><g fill="#000000" fill-opacity="0.502"><g transform="translate(100.216778, 64.554182)"><g><path d="M 19.203125 -7.980469 L 18.9375 -7.714844 C 18.804688 -6.332031 18.859375 -5.105469 17.074219 -5 C 17.074219 -5.027344 13.140625 -4.734375 12.742188 -5.027344 L 12.234375 -5.664062 L 11.914062 -7.472656 C 11.914062 -7.472656 11.515625 -11.648438 11.890625 -12.183594 L 12.101562 -12.847656 C 12.101562 -12.898438 23.910156 -12.765625 23.9375 -13.246094 C 24.523438 -20.160156 23.804688 -29.601562 23.804688 -29.601562 L 23.085938 -30.5625 C 12.765625 -32.742188 4.496094 -30.5625 4.496094 -30.5625 L 3.246094 -29.285156 C 1.597656 -18.351562 4.65625 -3.511719 4.65625 -3.511719 L 5 -2.234375 C 9.257812 1.96875 20.933594 -0.664062 20.933594 -0.613281 C 20.933594 -0.558594 22.050781 -1.304688 22.050781 -1.304688 C 23.246094 -3.964844 23.59375 -7.925781 23.566406 -7.980469 Z M 12.074219 -17.527344 C 11.996094 -18.859375 11.941406 -20.585938 12.15625 -20.90625 C 12.15625 -20.90625 12.925781 -21.625 16.863281 -21.625 C 18.539062 -21.625 19.335938 -21.570312 19.175781 -20.109375 C 19.125 -19.496094 18.964844 -16.996094 18.964844 -16.996094 C 18.964844 -16.996094 12.128906 -16.597656 12.074219 -17.527344 Z M 12.074219 -17.527344 "/></g></g></g><g fill="#000000" fill-opacity="0.502"><g transform="translate(126.839442, 64.554182)"><g><path d="M 12.128906 -29.789062 C 12.128906 -30.90625 12.101562 -31.570312 12.050781 -31.570312 C 7.792969 -32.554688 4.523438 -32.316406 4.523438 -32.316406 L 3.191406 -31.917969 C 3.191406 -31.917969 2.5 -12.394531 3.378906 -0.957031 L 4.28125 0.265625 L 11.332031 0.292969 C 11.332031 0.292969 11.703125 -9.65625 11.941406 -17.609375 L 13.113281 -18.113281 C 13.113281 -18.113281 22.183594 -17.34375 22.449219 -17.34375 C 22.792969 -17.34375 22.078125 -30.773438 22.078125 -30.773438 C 18.191406 -31.96875 13.9375 -30.535156 12.128906 -29.789062 Z M 12.128906 -29.789062 "/></g></g></g><g fill="#000000" fill-opacity="0.502"><g transform="translate(152.158899, 64.554182)"><g><path d="M 18.40625 -14.816406 L 17.394531 -13.03125 L 14.46875 -8.832031 L 13.671875 -30.71875 L 3.164062 -30.535156 C 3.164062 -30.535156 2.367188 -1.25 2.632812 -1.195312 C 5.796875 -0.453125 13.882812 -0.558594 13.882812 -0.558594 L 14.867188 -0.878906 L 17.980469 -5.929688 L 21.996094 -0.558594 C 24.390625 0.71875 28.9375 0.160156 28.9375 0.160156 L 29.921875 -0.132812 C 29.921875 -0.132812 30.453125 -21.675781 29.789062 -30.1875 L 29.125 -31.121094 L 22.714844 -31.332031 L 22.078125 -31.121094 C 22.078125 -31.121094 21.96875 -26.039062 21.96875 -25.613281 C 21.96875 -25.1875 22.210938 -10.027344 22.210938 -10.027344 Z M 18.40625 -14.816406 "/></g></g></g><g fill="#000000" fill-opacity="0.502"><g transform="translate(185.031638, 64.554182)"><g><path d="M 15.957031 -8.539062 C 16.011719 -8.457031 15.640625 -3.617188 15.640625 -3.617188 L 15.214844 -3.378906 C 15.214844 -3.378906 11.941406 -3.191406 11.78125 -3.457031 C 11.675781 -3.644531 11.570312 -4.496094 11.570312 -4.496094 C 11.570312 -4.496094 11.011719 -7.5 11.4375 -8.113281 C 11.648438 -8.429688 15.878906 -8.644531 15.957031 -8.539062 Z M 25.453125 0.90625 L 22.582031 -1.171875 L 25.640625 -15.558594 C 25.960938 -17.050781 25.535156 -29.257812 25.425781 -30.855469 C 22.476562 -31.199219 11.089844 -32.289062 3.539062 -31.703125 L 3.003906 -18.566406 L 15.613281 -17.554688 L 16.226562 -16.542969 C 16.226562 -16.542969 17.128906 -15.640625 17.128906 -13.804688 C 17.074219 -13.804688 6.757812 -14.070312 3.40625 -10.984375 C 3.40625 -10.984375 2.179688 -5.746094 5.503906 0.371094 C 5.503906 0.371094 10.53125 0.238281 14.707031 -0.265625 C 14.734375 -0.398438 15.558594 1.4375 15.558594 1.4375 L 21.808594 3.882812 L 22.902344 4.042969 Z M 25.453125 0.90625 "/></g></g></g><g fill="#000000" fill-opacity="0.502"><g transform="translate(213.675604, 64.554182)"><g><path d="M 12.128906 -29.789062 C 12.128906 -30.90625 12.101562 -31.570312 12.050781 -31.570312 C 7.792969 -32.554688 4.523438 -32.316406 4.523438 -32.316406 L 3.191406 -31.917969 C 3.191406 -31.917969 2.5 -12.394531 3.378906 -0.957031 L 4.28125 0.265625 L 11.332031 0.292969 C 11.332031 0.292969 11.703125 -9.65625 11.941406 -17.609375 L 13.113281 -18.113281 C 13.113281 -18.113281 22.183594 -17.34375 22.449219 -17.34375 C 22.792969 -17.34375 22.078125 -30.773438 22.078125 -30.773438 C 18.191406 -31.96875 13.9375 -30.535156 12.128906 -29.789062 Z M 12.128906 -29.789062 "/></g></g></g><g fill="#000000" fill-opacity="0.502"><g transform="translate(238.99506, 64.554182)"><g><path d="M 19.203125 -7.980469 L 18.9375 -7.714844 C 18.804688 -6.332031 18.859375 -5.105469 17.074219 -5 C 17.074219 -5.027344 13.140625 -4.734375 12.742188 -5.027344 L 12.234375 -5.664062 L 11.914062 -7.472656 C 11.914062 -7.472656 11.515625 -11.648438 11.890625 -12.183594 L 12.101562 -12.847656 C 12.101562 -12.898438 23.910156 -12.765625 23.9375 -13.246094 C 24.523438 -20.160156 23.804688 -29.601562 23.804688 -29.601562 L 23.085938 -30.5625 C 12.765625 -32.742188 4.496094 -30.5625 4.496094 -30.5625 L 3.246094 -29.285156 C 1.597656 -18.351562 4.65625 -3.511719 4.65625 -3.511719 L 5 -2.234375 C 9.257812 1.96875 20.933594 -0.664062 20.933594 -0.613281 C 20.933594 -0.558594 22.050781 -1.304688 22.050781 -1.304688 C 23.246094 -3.964844 23.59375 -7.925781 23.566406 -7.980469 Z M 12.074219 -17.527344 C 11.996094 -18.859375 11.941406 -20.585938 12.15625 -20.90625 C 12.15625 -20.90625 12.925781 -21.625 16.863281 -21.625 C 18.539062 -21.625 19.335938 -21.570312 19.175781 -20.109375 C 19.125 -19.496094 18.964844 -16.996094 18.964844 -16.996094 C 18.964844 -16.996094 12.128906 -16.597656 12.074219 -17.527344 Z M 12.074219 -17.527344 "/></g></g></g><g fill="#000000" fill-opacity="0.502"><g transform="translate(265.617724, 64.554182)"><g/></g></g><g fill="#000000" fill-opacity="0.502"><g transform="translate(282.000902, 64.554182)"><g><path d="M 3.644531 -41.199219 C 3.644531 -41.199219 -0.210938 -11.914062 6.703125 1.25 C 6.703125 1.25 21.835938 0 28.460938 -0.796875 L 28.621094 -8.140625 L 32.394531 -8.429688 L 31.785156 -15.453125 C 24.789062 -16.089844 17.554688 -14.65625 17.554688 -14.65625 L 17.792969 -11.332031 L 20.640625 -11.144531 L 20.851562 -6.757812 C 20 -6.730469 18.992188 -6.703125 17.714844 -6.703125 C 17.207031 -6.703125 12.183594 -6.835938 11.78125 -7.449219 C 11.570312 -7.898438 10.71875 -16.808594 10.71875 -16.808594 C 10.71875 -16.808594 10.480469 -18.484375 11.515625 -19.949219 C 12.421875 -21.226562 22.980469 -20.800781 24.710938 -21.117188 C 24.710938 -21.039062 24.734375 -21.039062 24.761719 -21.117188 L 24.710938 -21.117188 C 24.65625 -21.570312 25.347656 -25.613281 25.347656 -25.613281 C 25.347656 -28.007812 25.1875 -37.371094 25.003906 -39.84375 C 20.375 -40.375 8.273438 -41.785156 3.644531 -41.199219 Z M 3.644531 -41.199219 "/></g></g></g><g fill="#000000" fill-opacity="0.502"><g transform="translate(315.006622, 64.554182)"><g><path d="M 15.957031 -8.539062 C 16.011719 -8.457031 15.640625 -3.617188 15.640625 -3.617188 L 15.214844 -3.378906 C 15.214844 -3.378906 11.941406 -3.191406 11.78125 -3.457031 C 11.675781 -3.644531 11.570312 -4.496094 11.570312 -4.496094 C 11.570312 -4.496094 11.011719 -7.5 11.4375 -8.113281 C 11.648438 -8.429688 15.878906 -8.644531 15.957031 -8.539062 Z M 25.453125 0.90625 L 22.582031 -1.171875 L 25.640625 -15.558594 C 25.960938 -17.050781 25.535156 -29.257812 25.425781 -30.855469 C 22.476562 -31.199219 11.089844 -32.289062 3.539062 -31.703125 L 3.003906 -18.566406 L 15.613281 -17.554688 L 16.226562 -16.542969 C 16.226562 -16.542969 17.128906 -15.640625 17.128906 -13.804688 C 17.074219 -13.804688 6.757812 -14.070312 3.40625 -10.984375 C 3.40625 -10.984375 2.179688 -5.746094 5.503906 0.371094 C 5.503906 0.371094 10.53125 0.238281 14.707031 -0.265625 C 14.734375 -0.398438 15.558594 1.4375 15.558594 1.4375 L 21.808594 3.882812 L 22.902344 4.042969 Z M 25.453125 0.90625 "/></g></g></g><g fill="#000000" fill-opacity="0.502"><g transform="translate(343.650587, 64.554182)"><g><path d="M 39.523438 -0.957031 C 40.402344 -12.394531 39.710938 -30.054688 39.710938 -30.054688 C 25.054688 -31.863281 13.140625 -30.535156 11.332031 -29.789062 C 11.332031 -30.90625 11.304688 -31.570312 11.25 -31.570312 C 6.996094 -32.554688 4.523438 -32.316406 4.523438 -32.316406 L 3.191406 -31.917969 C 3.191406 -31.917969 2.5 -12.394531 3.378906 -0.957031 L 4.28125 0.265625 L 9.46875 0.292969 C 9.46875 0.292969 9.839844 -9.65625 10.082031 -17.609375 L 12.316406 -18.113281 C 12.316406 -18.113281 14.683594 -18.191406 16.890625 -18.007812 C 17.207031 -17.980469 17.6875 -0.078125 17.6875 -0.078125 C 17.6875 -0.078125 25.613281 0.320312 25.640625 0.210938 C 26.253906 -6.863281 26.304688 -13.140625 26.144531 -18.035156 C 28.460938 -18.246094 30.585938 -18.113281 30.585938 -18.113281 L 32.820312 -17.609375 C 33.0625 -9.65625 33.433594 0.292969 33.433594 0.292969 L 38.621094 0.265625 Z M 39.523438 -0.957031 "/></g></g></g><g fill="#000000" fill-opacity="0.502"><g transform="translate(386.576641, 64.554182)"><g><path d="M 19.203125 -7.980469 L 18.9375 -7.714844 C 18.804688 -6.332031 18.859375 -5.105469 17.074219 -5 C 17.074219 -5.027344 13.140625 -4.734375 12.742188 -5.027344 L 12.234375 -5.664062 L 11.914062 -7.472656 C 11.914062 -7.472656 11.515625 -11.648438 11.890625 -12.183594 L 12.101562 -12.847656 C 12.101562 -12.898438 23.910156 -12.765625 23.9375 -13.246094 C 24.523438 -20.160156 23.804688 -29.601562 23.804688 -29.601562 L 23.085938 -30.5625 C 12.765625 -32.742188 4.496094 -30.5625 4.496094 -30.5625 L 3.246094 -29.285156 C 1.597656 -18.351562 4.65625 -3.511719 4.65625 -3.511719 L 5 -2.234375 C 9.257812 1.96875 20.933594 -0.664062 20.933594 -0.613281 C 20.933594 -0.558594 22.050781 -1.304688 22.050781 -1.304688 C 23.246094 -3.964844 23.59375 -7.925781 23.566406 -7.980469 Z M 12.074219 -17.527344 C 11.996094 -18.859375 11.941406 -20.585938 12.15625 -20.90625 C 12.15625 -20.90625 12.925781 -21.625 16.863281 -21.625 C 18.539062 -21.625 19.335938 -21.570312 19.175781 -20.109375 C 19.125 -19.496094 18.964844 -16.996094 18.964844 -16.996094 C 18.964844 -16.996094 12.128906 -16.597656 12.074219 -17.527344 Z M 12.074219 -17.527344 "/></g></g></g><g fill="#000000" fill-opacity="0.502"><g transform="translate(413.199305, 64.554182)"><g><path d="M 22.15625 -31.757812 C 21.171875 -31.945312 5.160156 -30.90625 4.8125 -30.640625 C 4.761719 -30.613281 4.28125 -29.921875 4.28125 -29.921875 C 3.378906 -28.726562 3.085938 -11.515625 3.324219 -11.515625 C 3.324219 -11.515625 6.4375 -10.664062 13.859375 -10.292969 C 13.699219 -9.097656 13.164062 -5.558594 13.164062 -5.558594 C 12.742188 -5.558594 4.546875 -6.703125 4.546875 -6.703125 C 4.523438 -6.648438 4.121094 -5.984375 4.121094 -5.984375 C 4.121094 -5.984375 4.230469 -0.984375 4.441406 -0.984375 C 4.546875 -0.984375 6.570312 -0.796875 10.1875 -0.664062 C 15.667969 -0.453125 24.335938 -0.613281 24.601562 -0.613281 C 24.976562 -0.613281 25.425781 -14.148438 25.425781 -14.148438 L 25.136719 -14.496094 L 10.054688 -15.375 L 10.320312 -18.617188 C 10.320312 -18.617188 22.15625 -18.539062 22.609375 -18.617188 C 23.035156 -18.699219 22.527344 -31.679688 22.15625 -31.757812 Z M 22.15625 -31.757812 "/></g></g></g><g fill="#000000" fill-opacity="1"><g transform="translate(9.550783, 62.511207)"><g><path d="M 32.261719 -0.664062 C 32.820312 -0.90625 33.40625 -14.148438 33.40625 -14.148438 L 32.980469 -14.601562 L 10.480469 -15.800781 L 10.851562 -19.523438 C 10.851562 -19.523438 28.910156 -19.390625 29.523438 -19.523438 C 30.109375 -19.628906 29.417969 -39.65625 28.910156 -39.765625 C 27.554688 -40.03125 5.585938 -38.59375 5.105469 -38.222656 C 5.054688 -38.195312 4.363281 -37.238281 4.363281 -37.238281 C 3.113281 -35.589844 2.765625 -13.433594 3.058594 -13.433594 C 3.058594 -13.433594 6.96875 -12.261719 17.15625 -11.757812 C 16.941406 -10.105469 16.570312 -7.847656 16.570312 -7.847656 C 15.957031 -7.847656 4.761719 -9.390625 4.761719 -9.390625 C 4.679688 -9.335938 4.148438 -8.40625 4.148438 -8.40625 C 4.148438 -8.40625 4.175781 -2.019531 4.601562 -1.195312 Z M 32.261719 -0.664062 "/></g></g></g><g fill="#000000" fill-opacity="1"><g transform="translate(44.684189, 62.511207)"><g><path d="M 4.28125 0.265625 L 10.53125 0.292969 C 10.53125 0.292969 11.597656 -38.671875 11.25 -38.753906 C 6.996094 -39.738281 4.523438 -39.496094 4.523438 -39.496094 L 3.191406 -39.097656 C 3.191406 -39.097656 2.5 -12.394531 3.378906 -0.957031 Z M 4.28125 0.265625 "/></g></g></g><g fill="#000000" fill-opacity="1"><g transform="translate(58.301375, 62.511207)"><g><path d="M 4.546875 0.265625 L 10.796875 0.292969 C 10.796875 0.292969 11.863281 -30.695312 11.515625 -30.773438 C 7.261719 -31.757812 4.789062 -31.519531 4.789062 -31.519531 L 3.457031 -31.121094 C 3.457031 -31.121094 2.765625 -12.394531 3.644531 -0.957031 Z M 11.492188 -39.207031 C 11.492188 -39.445312 11.492188 -39.65625 11.355469 -39.871094 C 10.691406 -41.386719 9.496094 -41.679688 7.847656 -41.679688 C 5.90625 -41.679688 2.660156 -40.828125 2.660156 -38.566406 C 2.660156 -36.519531 4.921875 -35.269531 6.730469 -35.269531 C 8.722656 -35.269531 11.492188 -37.210938 11.492188 -39.207031 Z M 11.492188 -39.207031 "/></g></g></g><g fill="#000000" fill-opacity="1"><g transform="translate(72.583464, 62.511207)"><g><path d="M 21.359375 -7.207031 C 21.359375 -7.207031 26.304688 -29.894531 26.226562 -29.949219 C 25.003906 -30.773438 22.128906 -31.570312 22.128906 -31.570312 L 20.984375 -31.332031 L 17.207031 -19.816406 C 17.207031 -19.816406 13.273438 -31.730469 13.164062 -31.703125 C 9.574219 -31.039062 1.675781 -27.609375 1.675781 -27.609375 L 1.355469 -26.757812 L 9.894531 0.398438 L 19.203125 0.0546875 Z M 21.359375 -7.207031 "/></g></g></g><g fill="#000000" fill-opacity="1"><g transform="translate(100.216778, 62.511207)"><g><path d="M 19.203125 -7.980469 L 18.9375 -7.714844 C 18.804688 -6.332031 18.859375 -5.105469 17.074219 -5 C 17.074219 -5.027344 13.140625 -4.734375 12.742188 -5.027344 L 12.234375 -5.664062 L 11.914062 -7.472656 C 11.914062 -7.472656 11.515625 -11.648438 11.890625 -12.183594 L 12.101562 -12.847656 C 12.101562 -12.898438 23.910156 -12.765625 23.9375 -13.246094 C 24.523438 -20.160156 23.804688 -29.601562 23.804688 -29.601562 L 23.085938 -30.5625 C 12.765625 -32.742188 4.496094 -30.5625 4.496094 -30.5625 L 3.246094 -29.285156 C 1.597656 -18.351562 4.65625 -3.511719 4.65625 -3.511719 L 5 -2.234375 C 9.257812 1.96875 20.933594 -0.664062 20.933594 -0.613281 C 20.933594 -0.558594 22.050781 -1.304688 22.050781 -1.304688 C 23.246094 -3.964844 23.59375 -7.925781 23.566406 -7.980469 Z M 12.074219 -17.527344 C 11.996094 -18.859375 11.941406 -20.585938 12.15625 -20.90625 C 12.15625 -20.90625 12.925781 -21.625 16.863281 -21.625 C 18.539062 -21.625 19.335938 -21.570312 19.175781 -20.109375 C 19.125 -19.496094 18.964844 -16.996094 18.964844 -16.996094 C 18.964844 -16.996094 12.128906 -16.597656 12.074219 -17.527344 Z M 12.074219 -17.527344 "/></g></g></g><g fill="#000000" fill-opacity="1"><g transform="translate(126.839442, 62.511207)"><g><path d="M 12.128906 -29.789062 C 12.128906 -30.90625 12.101562 -31.570312 12.050781 -31.570312 C 7.792969 -32.554688 4.523438 -32.316406 4.523438 -32.316406 L 3.191406 -31.917969 C 3.191406 -31.917969 2.5 -12.394531 3.378906 -0.957031 L 4.28125 0.265625 L 11.332031 0.292969 C 11.332031 0.292969 11.703125 -9.65625 11.941406 -17.609375 L 13.113281 -18.113281 C 13.113281 -18.113281 22.183594 -17.34375 22.449219 -17.34375 C 22.792969 -17.34375 22.078125 -30.773438 22.078125 -30.773438 C 18.191406 -31.96875 13.9375 -30.535156 12.128906 -29.789062 Z M 12.128906 -29.789062 "/></g></g></g><g fill="#000000" fill-opacity="1"><g transform="translate(152.158899, 62.511207)"><g><path d="M 18.40625 -14.816406 L 17.394531 -13.03125 L 14.46875 -8.832031 L 13.671875 -30.71875 L 3.164062 -30.535156 C 3.164062 -30.535156 2.367188 -1.25 2.632812 -1.195312 C 5.796875 -0.453125 13.882812 -0.558594 13.882812 -0.558594 L 14.867188 -0.878906 L 17.980469 -5.929688 L 21.996094 -0.558594 C 24.390625 0.71875 28.9375 0.160156 28.9375 0.160156 L 29.921875 -0.132812 C 29.921875 -0.132812 30.453125 -21.675781 29.789062 -30.1875 L 29.125 -31.121094 L 22.714844 -31.332031 L 22.078125 -31.121094 C 22.078125 -31.121094 21.96875 -26.039062 21.96875 -25.613281 C 21.96875 -25.1875 22.210938 -10.027344 22.210938 -10.027344 Z M 18.40625 -14.816406 "/></g></g></g><g fill="#000000" fill-opacity="1"><g transform="translate(185.031638, 62.511207)"><g><path d="M 15.957031 -8.539062 C 16.011719 -8.457031 15.640625 -3.617188 15.640625 -3.617188 L 15.214844 -3.378906 C 15.214844 -3.378906 11.941406 -3.191406 11.78125 -3.457031 C 11.675781 -3.644531 11.570312 -4.496094 11.570312 -4.496094 C 11.570312 -4.496094 11.011719 -7.5 11.4375 -8.113281 C 11.648438 -8.429688 15.878906 -8.644531 15.957031 -8.539062 Z M 25.453125 0.90625 L 22.582031 -1.171875 L 25.640625 -15.558594 C 25.960938 -17.050781 25.535156 -29.257812 25.425781 -30.855469 C 22.476562 -31.199219 11.089844 -32.289062 3.539062 -31.703125 L 3.003906 -18.566406 L 15.613281 -17.554688 L 16.226562 -16.542969 C 16.226562 -16.542969 17.128906 -15.640625 17.128906 -13.804688 C 17.074219 -13.804688 6.757812 -14.070312 3.40625 -10.984375 C 3.40625 -10.984375 2.179688 -5.746094 5.503906 0.371094 C 5.503906 0.371094 10.53125 0.238281 14.707031 -0.265625 C 14.734375 -0.398438 15.558594 1.4375 15.558594 1.4375 L 21.808594 3.882812 L 22.902344 4.042969 Z M 25.453125 0.90625 "/></g></g></g><g fill="#000000" fill-opacity="1"><g transform="translate(213.675604, 62.511207)"><g><path d="M 12.128906 -29.789062 C 12.128906 -30.90625 12.101562 -31.570312 12.050781 -31.570312 C 7.792969 -32.554688 4.523438 -32.316406 4.523438 -32.316406 L 3.191406 -31.917969 C 3.191406 -31.917969 2.5 -12.394531 3.378906 -0.957031 L 4.28125 0.265625 L 11.332031 0.292969 C 11.332031 0.292969 11.703125 -9.65625 11.941406 -17.609375 L 13.113281 -18.113281 C 13.113281 -18.113281 22.183594 -17.34375 22.449219 -17.34375 C 22.792969 -17.34375 22.078125 -30.773438 22.078125 -30.773438 C 18.191406 -31.96875 13.9375 -30.535156 12.128906 -29.789062 Z M 12.128906 -29.789062 "/></g></g></g><g fill="#000000" fill-opacity="1"><g transform="translate(238.99506, 62.511207)"><g><path d="M 19.203125 -7.980469 L 18.9375 -7.714844 C 18.804688 -6.332031 18.859375 -5.105469 17.074219 -5 C 17.074219 -5.027344 13.140625 -4.734375 12.742188 -5.027344 L 12.234375 -5.664062 L 11.914062 -7.472656 C 11.914062 -7.472656 11.515625 -11.648438 11.890625 -12.183594 L 12.101562 -12.847656 C 12.101562 -12.898438 23.910156 -12.765625 23.9375 -13.246094 C 24.523438 -20.160156 23.804688 -29.601562 23.804688 -29.601562 L 23.085938 -30.5625 C 12.765625 -32.742188 4.496094 -30.5625 4.496094 -30.5625 L 3.246094 -29.285156 C 1.597656 -18.351562 4.65625 -3.511719 4.65625 -3.511719 L 5 -2.234375 C 9.257812 1.96875 20.933594 -0.664062 20.933594 -0.613281 C 20.933594 -0.558594 22.050781 -1.304688 22.050781 -1.304688 C 23.246094 -3.964844 23.59375 -7.925781 23.566406 -7.980469 Z M 12.074219 -17.527344 C 11.996094 -18.859375 11.941406 -20.585938 12.15625 -20.90625 C 12.15625 -20.90625 12.925781 -21.625 16.863281 -21.625 C 18.539062 -21.625 19.335938 -21.570312 19.175781 -20.109375 C 19.125 -19.496094 18.964844 -16.996094 18.964844 -16.996094 C 18.964844 -16.996094 12.128906 -16.597656 12.074219 -17.527344 Z M 12.074219 -17.527344 "/></g></g></g><g fill="#000000" fill-opacity="1"><g transform="translate(265.617724, 62.511207)"><g/></g></g><g fill="#000000" fill-opacity="1"><g transform="translate(282.000902, 62.511207)"><g><path d="M 3.644531 -41.199219 C 3.644531 -41.199219 -0.210938 -11.914062 6.703125 1.25 C 6.703125 1.25 21.835938 0 28.460938 -0.796875 L 28.621094 -8.140625 L 32.394531 -8.429688 L 31.785156 -15.453125 C 24.789062 -16.089844 17.554688 -14.65625 17.554688 -14.65625 L 17.792969 -11.332031 L 20.640625 -11.144531 L 20.851562 -6.757812 C 20 -6.730469 18.992188 -6.703125 17.714844 -6.703125 C 17.207031 -6.703125 12.183594 -6.835938 11.78125 -7.449219 C 11.570312 -7.898438 10.71875 -16.808594 10.71875 -16.808594 C 10.71875 -16.808594 10.480469 -18.484375 11.515625 -19.949219 C 12.421875 -21.226562 22.980469 -20.800781 24.710938 -21.117188 C 24.710938 -21.039062 24.734375 -21.039062 24.761719 -21.117188 L 24.710938 -21.117188 C 24.65625 -21.570312 25.347656 -25.613281 25.347656 -25.613281 C 25.347656 -28.007812 25.1875 -37.371094 25.003906 -39.84375 C 20.375 -40.375 8.273438 -41.785156 3.644531 -41.199219 Z M 3.644531 -41.199219 "/></g></g></g><g fill="#000000" fill-opacity="1"><g transform="translate(315.006622, 62.511207)"><g><path d="M 15.957031 -8.539062 C 16.011719 -8.457031 15.640625 -3.617188 15.640625 -3.617188 L 15.214844 -3.378906 C 15.214844 -3.378906 11.941406 -3.191406 11.78125 -3.457031 C 11.675781 -3.644531 11.570312 -4.496094 11.570312 -4.496094 C 11.570312 -4.496094 11.011719 -7.5 11.4375 -8.113281 C 11.648438 -8.429688 15.878906 -8.644531 15.957031 -8.539062 Z M 25.453125 0.90625 L 22.582031 -1.171875 L 25.640625 -15.558594 C 25.960938 -17.050781 25.535156 -29.257812 25.425781 -30.855469 C 22.476562 -31.199219 11.089844 -32.289062 3.539062 -31.703125 L 3.003906 -18.566406 L 15.613281 -17.554688 L 16.226562 -16.542969 C 16.226562 -16.542969 17.128906 -15.640625 17.128906 -13.804688 C 17.074219 -13.804688 6.757812 -14.070312 3.40625 -10.984375 C 3.40625 -10.984375 2.179688 -5.746094 5.503906 0.371094 C 5.503906 0.371094 10.53125 0.238281 14.707031 -0.265625 C 14.734375 -0.398438 15.558594 1.4375 15.558594 1.4375 L 21.808594 3.882812 L 22.902344 4.042969 Z M 25.453125 0.90625 "/></g></g></g><g fill="#000000" fill-opacity="1"><g transform="translate(343.650587, 62.511207)"><g><path d="M 39.523438 -0.957031 C 40.402344 -12.394531 39.710938 -30.054688 39.710938 -30.054688 C 25.054688 -31.863281 13.140625 -30.535156 11.332031 -29.789062 C 11.332031 -30.90625 11.304688 -31.570312 11.25 -31.570312 C 6.996094 -32.554688 4.523438 -32.316406 4.523438 -32.316406 L 3.191406 -31.917969 C 3.191406 -31.917969 2.5 -12.394531 3.378906 -0.957031 L 4.28125 0.265625 L 9.46875 0.292969 C 9.46875 0.292969 9.839844 -9.65625 10.082031 -17.609375 L 12.316406 -18.113281 C 12.316406 -18.113281 14.683594 -18.191406 16.890625 -18.007812 C 17.207031 -17.980469 17.6875 -0.078125 17.6875 -0.078125 C 17.6875 -0.078125 25.613281 0.320312 25.640625 0.210938 C 26.253906 -6.863281 26.304688 -13.140625 26.144531 -18.035156 C 28.460938 -18.246094 30.585938 -18.113281 30.585938 -18.113281 L 32.820312 -17.609375 C 33.0625 -9.65625 33.433594 0.292969 33.433594 0.292969 L 38.621094 0.265625 Z M 39.523438 -0.957031 "/></g></g></g><g fill="#000000" fill-opacity="1"><g transform="translate(386.576641, 62.511207)"><g><path d="M 19.203125 -7.980469 L 18.9375 -7.714844 C 18.804688 -6.332031 18.859375 -5.105469 17.074219 -5 C 17.074219 -5.027344 13.140625 -4.734375 12.742188 -5.027344 L 12.234375 -5.664062 L 11.914062 -7.472656 C 11.914062 -7.472656 11.515625 -11.648438 11.890625 -12.183594 L 12.101562 -12.847656 C 12.101562 -12.898438 23.910156 -12.765625 23.9375 -13.246094 C 24.523438 -20.160156 23.804688 -29.601562 23.804688 -29.601562 L 23.085938 -30.5625 C 12.765625 -32.742188 4.496094 -30.5625 4.496094 -30.5625 L 3.246094 -29.285156 C 1.597656 -18.351562 4.65625 -3.511719 4.65625 -3.511719 L 5 -2.234375 C 9.257812 1.96875 20.933594 -0.664062 20.933594 -0.613281 C 20.933594 -0.558594 22.050781 -1.304688 22.050781 -1.304688 C 23.246094 -3.964844 23.59375 -7.925781 23.566406 -7.980469 Z M 12.074219 -17.527344 C 11.996094 -18.859375 11.941406 -20.585938 12.15625 -20.90625 C 12.15625 -20.90625 12.925781 -21.625 16.863281 -21.625 C 18.539062 -21.625 19.335938 -21.570312 19.175781 -20.109375 C 19.125 -19.496094 18.964844 -16.996094 18.964844 -16.996094 C 18.964844 -16.996094 12.128906 -16.597656 12.074219 -17.527344 Z M 12.074219 -17.527344 "/></g></g></g><g fill="#000000" fill-opacity="1"><g transform="translate(413.199305, 62.511207)"><g><path d="M 22.15625 -31.757812 C 21.171875 -31.945312 5.160156 -30.90625 4.8125 -30.640625 C 4.761719 -30.613281 4.28125 -29.921875 4.28125 -29.921875 C 3.378906 -28.726562 3.085938 -11.515625 3.324219 -11.515625 C 3.324219 -11.515625 6.4375 -10.664062 13.859375 -10.292969 C 13.699219 -9.097656 13.164062 -5.558594 13.164062 -5.558594 C 12.742188 -5.558594 4.546875 -6.703125 4.546875 -6.703125 C 4.523438 -6.648438 4.121094 -5.984375 4.121094 -5.984375 C 4.121094 -5.984375 4.230469 -0.984375 4.441406 -0.984375 C 4.546875 -0.984375 6.570312 -0.796875 10.1875 -0.664062 C 15.667969 -0.453125 24.335938 -0.613281 24.601562 -0.613281 C 24.976562 -0.613281 25.425781 -14.148438 25.425781 -14.148438 L 25.136719 -14.496094 L 10.054688 -15.375 L 10.320312 -18.617188 C 10.320312 -18.617188 22.15625 -18.539062 22.609375 -18.617188 C 23.035156 -18.699219 22.527344 -31.679688 22.15625 -31.757812 Z M 22.15625 -31.757812 "/></g></g></g></svg>